<svg xmlns="http://www.w3.org/2000/svg" viewBox="0 0 640 640">
  <rect width="640" height="640" rx="96" fill="#141512"/>
  <g fill="#d98e32" transform="translate(0,200)">
    <path d="M 320 152 L 262 132 L 170 118 L 28 96 L 202 54 L 208 34 L 218 52 L 300 86 L 320 96 Z"/>
    <path d="M 320 152 L 378 132 L 470 118 L 612 96 L 438 54 L 432 34 L 422 52 L 340 86 L 320 96 Z"/>
    <path d="M 320 84 L 348 120 L 320 168 L 292 120 Z"/>
    <path d="M 312 160 L 300 200 L 318 168 Z"/>
    <path d="M 328 160 L 340 200 L 322 168 Z"/>
    <path d="M 268 40 L 328 56 L 436 152 L 318 88 L 296 66 Z"/>
  </g>
  <circle cx="316" cy="266" r="5" fill="#141512"/>
</svg>
