<svg xmlns="http://www.w3.org/2000/svg" viewBox="0 0 640 640">
  <rect width="640" height="640" rx="96" fill="#141512"/>
  <g fill="#d98e32" transform="translate(0,200)">
    <path d="M 318 100 L 248 76 L 172 62 L 162 46 L 152 64 L 36 92 L 92 118 L 142 152 L 196 130 L 250 160 L 318 150 Z"/>
    <path d="M 322 100 L 392 76 L 468 62 L 478 46 L 488 64 L 604 92 L 548 118 L 498 152 L 444 130 L 390 160 L 322 150 Z"/>
    <path d="M 320 84 L 348 120 L 320 168 L 292 120 Z"/>
    <path d="M 310 146 L 300 200 L 320 168 Z"/>
    <path d="M 330 146 L 340 200 L 320 168 Z"/>
    <path d="M 243 49 L 323 33 L 358 19 L 342 58 L 303 60 Z"/>
    <path d="M 311 52 L 344 52 L 329 96 L 317 88 Z"/>
  </g>
  <circle cx="305" cy="246" r="4" fill="#141512"/>
</svg>
