<svg xmlns="http://www.w3.org/2000/svg" viewBox="0 0 640 640">
  <rect width="640" height="640" rx="96" fill="#141512"/>
  <g fill="#d98e32" transform="translate(0,200)">
    <path d="M 318 102 C 255 78, 210 66, 180 62 L 162 44 L 148 62 C 110 68, 74 76, 40 86 C 80 104, 108 118, 150 152 C 175 130, 220 132, 250 156 C 268 138, 300 136, 318 150 Z"/>
    <path d="M 322 102 C 385 78, 430 66, 460 62 L 478 44 L 492 62 C 530 68, 566 76, 600 86 C 560 104, 532 118, 490 152 C 465 130, 420 132, 390 156 C 372 138, 340 136, 322 150 Z"/>
    <path d="M 320 84 L 348 120 L 320 168 L 292 120 Z"/>
    <path d="M 310 146 L 300 200 L 320 168 Z"/>
    <path d="M 330 146 L 340 200 L 320 168 Z"/>
    <path d="M 382 10 L 336 50 L 312 56 L 288 54 L 250 46 L 298 28 Z"/>
    <path d="M 308 54 L 330 54 L 326 94 L 312 94 Z"/>
  </g>
  <circle cx="324" cy="237" r="4" fill="#141512"/>
</svg>
