<svg xmlns="http://www.w3.org/2000/svg" viewBox="0 0 640 640">
  <rect width="640" height="640" rx="96" fill="#141512"/>
  <g fill="#d98e32" transform="translate(0,200)">
    <path d="M 318 102 C 255 78, 210 66, 180 62 L 162 44 L 148 62 C 110 68, 74 76, 40 86 C 80 104, 108 118, 150 152 C 175 130, 220 132, 250 156 C 268 138, 300 136, 318 150 Z"/>
    <path d="M 322 102 C 385 78, 430 66, 460 62 L 478 44 L 492 62 C 530 68, 566 76, 600 86 C 560 104, 532 118, 490 152 C 465 130, 420 132, 390 156 C 372 138, 340 136, 322 150 Z"/>
    <path d="M 320 84 L 348 120 L 320 168 L 292 120 Z"/>
    <path d="M 310 146 L 300 200 L 320 168 Z"/>
    <path d="M 330 146 L 340 200 L 320 168 Z"/>
    <path d="M 243 49 L 323 33 L 358 19 L 342 58 L 303 60 Z"/>
    <path d="M 311 52 L 344 52 L 329 96 L 317 88 Z"/>
  </g>
  <circle cx="305" cy="246" r="4" fill="#141512"/>
</svg>
